# xmcd
#
# Track frame offsets:
#	150
#	22898
#	43305
#	65423
#	86490
#	107690
#	129300
#	149078
#	170118
#	191693
#
# Disc length: 2815 seconds
#
# Revision: 2
# Processed by: cddbd v1.5.2PL0 Copyright (c) Steve Scherf et al.
# Submitted via: EasyCDDAExtractor 12.0.1.1
#
DISCID=8f0afd0a
DTITLE=Mayra Y Celines - 18.75
DYEAR=1992
DGENRE=Latin
TTITLE0=Señor
TTITLE1=Vuelto Loca Y Sin Idea
TTITLE2=Te
TTITLE3=Hazlo De A Poco
TTITLE4=En Vivo Y En Directo
TTITLE5=Del Mismo Nido
TTITLE6=18.75
TTITLE7=Amorosamente
TTITLE8=Matame
TTITLE9=A Fuego Lento
EXTD=YEAR: 1992 ID3G:  86
EXTT0=
EXTT1=
EXTT2=
EXTT3=
EXTT4=
EXTT5=
EXTT6=
EXTT7=
EXTT8=
EXTT9=
PLAYORDER=
